HIERARCHY
ROOT root
{
  OFFSET 0 93.2929 0
  CHANNELS 6 Xposition Yposition Zposition Zrotation Xrotation Yrotation
  JOINT torso_1
  {
    OFFSET 0 5.07867 -1.15138
    CHANNELS 6 Xposition Yposition Zposition Zrotation Xrotation Yrotation
    JOINT torso_2
    {
      OFFSET 0 5.61661 1.07143
      CHANNELS 6 Xposition Yposition Zposition Zrotation Xrotation Yrotation
      JOINT torso_3
      {
        OFFSET -1.02604e-17 5.98978 0.11501
        CHANNELS 6 Xposition Yposition Zposition Zrotation Xrotation Yrotation
        JOINT torso_4
        {
          OFFSET -1.10457e-17 6.50583 -0.443523
          CHANNELS 6 Xposition Yposition Zposition Zrotation Xrotation Yrotation
          JOINT torso_5
          {
            OFFSET -1.97295e-17 7.60548 -1.50593
            CHANNELS 6 Xposition Yposition Zposition Zrotation Xrotation Yrotation
            JOINT torso_6
            {
              OFFSET -2.53307e-17 9.49737 -0.914492
              CHANNELS 6 Xposition Yposition Zposition Zrotation Xrotation Yrotation
              JOINT torso_7
              {
                OFFSET -2.90401e-17 10.5513 1.57691
                CHANNELS 6 Xposition Yposition Zposition Zrotation Xrotation Yrotation
                JOINT neck_1
                {
                  OFFSET -1.29193e-17 4.78644 0.715339
                  CHANNELS 6 Xposition Yposition Zposition Zrotation Xrotation Yrotation
                  JOINT neck_2
                  {
                    OFFSET -1.8116e-17 4.82109 0.421791
                    CHANNELS 6 Xposition Yposition Zposition Zrotation Xrotation Yrotation
                    JOINT head
                    {
                      OFFSET -2.00958e-17 4.83041 0.765062
                      CHANNELS 6 Xposition Yposition Zposition Zrotation Xrotation Yrotation
                      End Site
                      {
                        OFFSET 0 0.1 0
                      }
                    }
                  }
                }
                JOINT l_shoulder
                {
                  OFFSET 1.23299 -7.60731 7.53374
                  CHANNELS 6 Xposition Yposition Zposition Zrotation Xrotation Yrotation
                  JOINT l_up_arm
                  {
                    OFFSET 12.9547 3.2495 -3.26872
                    CHANNELS 6 Xposition Yposition Zposition Zrotation Xrotation Yrotation
                    JOINT l_low_arm
                    {
                      OFFSET 29.2081 0.0598081 0.137039
                      CHANNELS 6 Xposition Yposition Zposition Zrotation Xrotation Yrotation
                      JOINT l_hand
                      {
                        OFFSET 24.234 0.0496219 0.113701
                        CHANNELS 6 Xposition Yposition Zposition Zrotation Xrotation Yrotation
                        End Site
                        {
                          OFFSET 0.1 0 0
                        }
                      }
                    }
                  }
                }
                JOINT r_shoulder
                {
                  OFFSET -1.23299 -7.60729 7.53365
                  CHANNELS 6 Xposition Yposition Zposition Zrotation Xrotation Yrotation
                  JOINT r_up_arm
                  {
                    OFFSET -12.9547 3.2495 -3.26872
                    CHANNELS 6 Xposition Yposition Zposition Zrotation Xrotation Yrotation
                    JOINT r_low_arm
                    {
                      OFFSET -29.2081 0.0598081 0.137039
                      CHANNELS 6 Xposition Yposition Zposition Zrotation Xrotation Yrotation
                      JOINT r_hand
                      {
                        OFFSET -24.234 0.0496218 0.113702
                        CHANNELS 6 Xposition Yposition Zposition Zrotation Xrotation Yrotation
                        End Site
                        {
                          OFFSET -0.1 0 0
                        }
                      }
                    }
                  }
                }
              }
            }
          }
        }
      }
    }
  }
  JOINT l_up_leg
  {
    OFFSET 9.23673 -4.20556 2.0327
    CHANNELS 6 Xposition Yposition Zposition Zrotation Xrotation Yrotation
    JOINT l_low_leg
    {
      OFFSET -0.852353 -38.7721 -0.655187
      CHANNELS 6 Xposition Yposition Zposition Zrotation Xrotation Yrotation
      JOINT l_foot
      {
        OFFSET -2.32622 -40.4017 -6.04875
        CHANNELS 6 Xposition Yposition Zposition Zrotation Xrotation Yrotation
        JOINT l_toes
        {
          OFFSET 0.779096 -9.8844 12.4959
          CHANNELS 6 Xposition Yposition Zposition Zrotation Xrotation Yrotation
          End Site
          {
            OFFSET 0 0 0.1
          }
        }
      }
    }
  }
  JOINT r_up_leg
  {
    OFFSET -9.23673 -4.20556 2.0327
    CHANNELS 6 Xposition Yposition Zposition Zrotation Xrotation Yrotation
    JOINT r_low_leg
    {
      OFFSET 0.852353 -38.7721 -0.655187
      CHANNELS 6 Xposition Yposition Zposition Zrotation Xrotation Yrotation
      JOINT r_foot
      {
        OFFSET 2.32622 -40.4017 -6.04875
        CHANNELS 6 Xposition Yposition Zposition Zrotation Xrotation Yrotation
        JOINT r_toes
        {
          OFFSET -0.779096 -9.8844 12.4959
          CHANNELS 6 Xposition Yposition Zposition Zrotation Xrotation Yrotation
          End Site
          {
            OFFSET 0 0 0.1
          }
        }
      }
    }
  }
}
MOTION
Frames: 8
Frame Time: 0.016667
3.76633 95.8735 17.2159 2.19351 1.04414 32.0273 0 5.07867 -1.15138 -2.76219 -2.10246 -1.46013 0 5.61661 1.07143 -1.98224 -1.18586 -2.05498 -1.02604e-17 5.98978 0.11501 -1.44016 0.180892 -2.04314 -1.10457e-17 6.50583 -0.443523 -0.801999 2.36591 -2.01471 -1.97295e-17 7.60548 -1.50593 -0.638817 3.51866 -1.82776 -2.53307e-17 9.49737 -0.914492 -0.685077 3.90409 -1.63673 -2.90401e-17 10.5513 1.57691 0.0112803 1.00343 -0.154014 -1.29193e-17 4.78644 0.715339 1.21572 11.847 0.160303 -1.8116e-17 4.82109 0.421791 0.13618 -10.097 -0.296216 -2.00958e-17 4.83041 0.765062 -8.57474 -12.4936 -8.93908 1.23299 -7.60731 7.53374 17.984 -5.78093 5.8782 12.9547 3.2495 -3.26872 -39.0716 -15.7324 -27.9474 29.2081 0.0598081 0.137039 12.0091 -12.7267 -93.9423 24.234 0.0496219 0.113701 8.86667 -7.56294 -3.92694 -1.23299 -7.60729 7.53365 -27.8103 -6.77955 -4.93192 -12.9547 3.2495 -3.26872 67.388 -8.43563 10.6289 -29.2081 0.0598081 0.137039 -11.7268 -9.30545 77.3859 -24.234 0.0496218 0.113702 1.95452 0.329045 -2.90224 9.23673 -4.20556 2.0327 -13.409 -8.71101 -44.6364 -0.852353 -38.7721 -0.655187 -1.54515 5.76579 -0.0229058 -2.32622 -40.4017 -6.04875 -5.37945 23.8141 13.8939 0.779096 -9.8844 12.4959 -7.37157e-16 -8.23832e-16 4.11176e-17 -9.23673 -4.20556 2.0327 -26.8792 -50.7487 -5.73628 0.852353 -38.7721 -0.655187 86.515 75.9247 -70.6653 2.32622 -40.4017 -6.04875 4.66323 6.78838 -15.9831 -0.779096 -9.8844 12.4959 -2.21976e-15 -4.9918e-16 -1.26747e-14 
2.6016 95.7353 18.5771 0.415068 0.880566 32.015 0 5.07867 -1.15138 -2.25815 -1.95209 -1.4894 0 5.61661 1.07143 -1.5549 -1.10023 -1.98864 -1.02604e-17 5.98978 0.11501 -1.12442 0.21206 -1.94272 -1.10457e-17 6.50583 -0.443523 -0.618105 2.26676 -1.8958 -1.97295e-17 7.60548 -1.50593 -0.564495 3.37384 -1.73846 -2.53307e-17 9.49737 -0.914492 -0.705079 3.71201 -1.5344 -2.90401e-17 10.5513 1.57691 0.0172949 0.969496 -0.118198 -1.29193e-17 4.78644 0.715339 1.17376 12.2222 -0.699361 -1.8116e-17 4.82109 0.421791 -0.00262448 -9.8305 -0.67866 -2.00958e-17 4.83041 0.765062 -8.65905 -13.8001 -8.63 1.23299 -7.60731 7.53374 18.6037 -6.01427 6.14874 12.9547 3.2495 -3.26872 -41.7513 -17.1114 -29.1948 29.2081 0.0598081 0.137039 12.0187 -12.5624 -93.1471 24.234 0.0496219 0.113701 6.78994 -6.53305 -3.59182 -1.23299 -7.60729 7.53365 -28.0082 -6.47904 -5.17874 -12.9547 3.2495 -3.26872 67.6278 -10.41 9.74783 -29.2081 0.0598081 0.137039 -11.7539 -9.42526 77.9734 -24.234 0.0496218 0.113702 2.02906 4.53594 -2.29797 9.23673 -4.20556 2.0327 -11.2006 -9.37127 -43.6777 -0.852353 -38.7721 -0.655187 -1.85654 6.92191 -0.0086765 -2.32622 -40.4017 -6.04875 -3.86623 19.8279 13.936 0.779096 -9.8844 12.4959 2.73684e-15 -6.77998e-16 -1.04717e-16 -9.23673 -4.20556 2.0327 -29.7763 -61.9884 -10.238 0.852353 -38.7721 -0.655187 111.382 75.0733 -94.6593 2.32622 -40.4017 -6.04875 1.13526 2.93769 -15.766 -0.779096 -9.8844 12.4959 -1.54768e-15 -5.27726e-16 -1.27033e-14 
1.58593 95.6997 19.8359 -0.518169 -0.814088 32.2745 0 5.07867 -1.15138 -1.59653 -1.73943 -1.37304 0 5.61661 1.07143 -0.996939 -0.91628 -1.72328 -1.02604e-17 5.98978 0.11501 -0.729509 0.37703 -1.65603 -1.10457e-17 6.50583 -0.443523 -0.409735 2.35559 -1.58968 -1.97295e-17 7.60548 -1.50593 -0.498061 3.4208 -1.47722 -2.53307e-17 9.49737 -0.914492 -0.735858 3.69722 -1.23974 -2.90401e-17 10.5513 1.57691 0.0175249 0.985548 -0.0611073 -1.29193e-17 4.78644 0.715339 1.02452 13.2652 -2.05375 -1.8116e-17 4.82109 0.421791 -0.670513 -9.99018 -1.3118 -2.00958e-17 4.83041 0.765062 -8.26823 -14.091 -9.03229 1.23299 -7.60731 7.53374 19.9641 -6.30411 6.69801 12.9547 3.2495 -3.26872 -44.3342 -15.7556 -31.6021 29.2081 0.0598081 0.137039 12.0271 -12.364 -92.1879 24.234 0.0496219 0.113701 5.90978 -6.88211 -1.49851 -1.23299 -7.60729 7.53365 -27.9111 -6.34782 -5.30488 -12.9547 3.2495 -3.26872 67.5376 -12.9791 9.40179 -29.2081 0.0598081 0.137039 -11.699 -9.18878 76.8129 -24.234 0.0496218 0.113702 2.82807 9.33019 -3.20561 9.23673 -4.20556 2.0327 -8.82842 -8.0622 -43.8221 -0.852353 -38.7721 -0.655187 -2.01175 7.49668 0.000769837 -2.32622 -40.4017 -6.04875 -3.23869 16.7401 14.1608 0.779096 -9.8844 12.4959 3.55091e-15 -6.47677e-16 -1.35038e-16 -9.23673 -4.20556 2.0327 -37.4086 -71.0036 -19.9567 0.852353 -38.7721 -0.655187 124.911 73.2531 -107.612 2.32622 -40.4017 -6.04875 -1.91487 -0.396592 -15.6349 -0.779096 -9.8844 12.4959 -1.39149e-15 -5.34234e-16 -1.27098e-14 
0.743417 95.7065 21.0461 -1.78347 -2.49709 32.5416 0 5.07867 -1.15138 -0.899741 -1.69383 -1.269 0 5.61661 1.07143 -0.387369 -0.870461 -1.455 -1.02604e-17 5.98978 0.11501 -0.269023 0.47133 -1.36343 -1.10457e-17 6.50583 -0.443523 -0.11351 2.52328 -1.27332 -1.97295e-17 7.60548 -1.50593 -0.336639 3.62554 -1.21808 -2.53307e-17 9.49737 -0.914492 -0.665062 3.87091 -0.967277 -2.90401e-17 10.5513 1.57691 0.0394255 1.00589 -0.0171383 -1.29193e-17 4.78644 0.715339 1.11857 15.0598 -3.51636 -1.8116e-17 4.82109 0.421791 -0.97324 -10.1464 -1.96163 -2.00958e-17 4.83041 0.765062 -8.26217 -15.1312 -9.60034 1.23299 -7.60731 7.53374 21.9299 -6.77479 7.6088 12.9547 3.2495 -3.26872 -47.7325 -13.2845 -34.3059 29.2081 0.0598081 0.137039 12.0333 -11.8817 -89.8611 24.234 0.0496219 0.113701 5.39126 -7.19092 -0.0123996 -1.23299 -7.60729 7.53365 -28.4579 -6.39365 -5.77084 -12.9547 3.2495 -3.26872 68.1529 -14.8624 10.118 -29.2081 0.0598081 0.137039 -11.4511 -8.3143 72.4715 -24.234 0.0496218 0.113702 2.64624 14.0524 -3.37265 9.23673 -4.20556 2.0327 -6.21038 -6.83648 -44.0146 -0.852353 -38.7721 -0.655187 -2.10628 7.84615 0.00728843 -2.32622 -40.4017 -6.04875 -2.60409 14.011 14.3455 0.779096 -9.8844 12.4959 -8.88566e-16 -8.40396e-16 5.76809e-17 -9.23673 -4.20556 2.0327 -62.2039 -77.5508 -47.891 0.852353 -38.7721 -0.655187 130.989 71.956 -113.375 2.32622 -40.4017 -6.04875 -3.8863 -3.1686 -15.4563 -0.779096 -9.8844 12.4959 -3.54984e-16 -5.77422e-16 -1.2753e-14 
0.123478 95.8079 22.16 -3.21656 -3.85777 32.8477 0 5.07867 -1.15138 -0.977186 -0.423039 -1.61193 0 5.61661 1.07143 -0.397378 0.262598 -1.84921 -1.02604e-17 5.98978 0.11501 -0.27417 1.32416 -1.77308 -1.10457e-17 6.50583 -0.443523 -0.11498 2.93949 -1.7115 -1.97295e-17 7.60548 -1.50593 -0.446977 3.65659 -1.62184 -2.53307e-17 9.49737 -0.914492 -0.884723 3.89844 -1.27446 -2.90401e-17 10.5513 1.57691 0.0410963 0.807104 0.0427516 -1.29193e-17 4.78644 0.715339 0.596564 9.68362 -1.7219 -1.8116e-17 4.82109 0.421791 -1.56297 -10.0848 -1.1748 -2.00958e-17 4.83041 0.765062 -5.61255 -11.9923 -9.85407 1.23299 -7.60731 7.53374 16.8576 -6.25576 3.89203 12.9547 3.2495 -3.26872 -36.9401 -21.357 -25.0283 29.2081 0.0598081 0.137039 12.0085 -11.2055 -86.6037 24.234 0.0496219 0.113701 4.41597 -13.734 -4.85216 -1.23299 -7.60729 7.53365 -24.752 -5.81375 -4.07042 -12.9547 3.2495 -3.26872 47.4389 -14.6994 6.54723 -29.2081 0.0598081 0.137039 -10.4314 -6.02161 60.4936 -24.234 0.0496218 0.113702 1.89551 -2.49424 3.03954 9.23673 -4.20556 2.0327 -3.64473 -6.36429 -43.2514 -0.852353 -38.7721 -0.655187 -2.28249 8.49635 0.0209833 -2.32622 -40.4017 -6.04875 -3.89049 11.8565 15.0468 0.779096 -9.8844 12.4959 -2.94744e-15 -9.23668e-16 1.40953e-16 -9.23673 -4.20556 2.0327 -111.078 -79.1014 -99.1592 0.852353 -38.7721 -0.655187 132.667 71.5275 -114.957 2.32622 -40.4017 -6.04875 -2.84251 -2.42891 -15.6529 -0.779096 -9.8844 12.4959 -8.89789e-16 -5.51539e-16 -1.27271e-14 
-0.179035 96.0752 23.256 -5.1358 -5.13973 33.6233 0 5.07867 -1.15138 -0.122823 -0.225904 -1.81676 0 5.61661 1.07143 0.464777 0.557293 -1.95109 -1.02604e-17 5.98978 0.11501 0.502403 1.72885 -1.90015 -1.10457e-17 6.50583 -0.443523 0.56217 3.45341 -1.83526 -1.97295e-17 7.60548 -1.50593 0.0554722 4.26177 -1.83804 -2.53307e-17 9.49737 -0.914492 -0.592879 4.52372 -1.51505 -2.90401e-17 10.5513 1.57691 0.0494553 0.730919 0.0649778 -1.29193e-17 4.78644 0.715339 0.991338 8.10553 -3.65904 -1.8116e-17 4.82109 0.421791 -1.37058 -9.96817 -2.05007 -2.00958e-17 4.83041 0.765062 -6.83594 -13.3155 -7.53243 1.23299 -7.60731 7.53374 14.7405 -6.28151 2.87036 12.9547 3.2495 -3.26872 -36.9526 -21.1609 -22.1475 29.2081 0.0598081 0.137039 12.0018 -11.1101 -86.144 24.234 0.0496219 0.113701 5.48095 -15.0389 -4.60736 -1.23299 -7.60729 7.53365 -24.8166 -6.02076 -3.74251 -12.9547 3.2495 -3.26872 43.3994 -14.7895 8.97357 -29.2081 0.0598081 0.137039 -10.0773 -5.44478 57.2701 -24.234 0.0496218 0.113702 1.20886 -2.46558 -1.84792 9.23673 -4.20556 2.0327 -0.893149 -6.09637 -42.9485 -0.852353 -38.7721 -0.655187 -2.42535 9.02221 0.0335583 -2.32622 -40.4017 -6.04875 -3.74193 10.3969 15.1646 0.779096 -9.8844 12.4959 -7.37191e-16 -8.23834e-16 4.1119e-17 -9.23673 -4.20556 2.0327 -137.979 -74.0426 -128.138 0.852353 -38.7721 -0.655187 130.002 72.1926 -112.442 2.32622 -40.4017 -6.04875 -2.01917 -2.64799 -15.4622 -0.779096 -9.8844 12.4959 -3.02919e-16 -5.79049e-16 -1.27546e-14 
-0.332317 96.4988 24.3113 -7.08058 -6.41597 34.2789 0 5.07867 -1.15138 0.700429 -1.97144 -1.75639 0 5.61661 1.07143 1.1922 -0.749979 -1.69733 -1.02604e-17 5.98978 0.11501 1.12652 1.20822 -1.60194 -1.10457e-17 6.50583 -0.443523 1.07135 4.25162 -1.50546 -1.97295e-17 7.60548 -1.50593 0.447685 5.8961 -1.57883 -2.53307e-17 9.49737 -0.914492 -0.343773 6.59413 -1.3339 -2.90401e-17 10.5513 1.57691 0.0772785 0.620763 0.0700639 -1.29193e-17 4.78644 0.715339 0.960206 9.92896 -4.50921 -1.8116e-17 4.82109 0.421791 -1.60793 -10.0187 -2.38323 -2.00958e-17 4.83041 0.765062 -7.65739 -15.7873 -9.55256 1.23299 -7.60731 7.53374 15.7521 -7.59988 4.38117 12.9547 3.2495 -3.26872 -40.1148 -18.8282 -26.964 29.2081 0.0598081 0.137039 11.9803 -10.8563 -84.9205 24.234 0.0496219 0.113701 4.01128 -16.562 0.509937 -1.23299 -7.60729 7.53365 -23.0251 -6.84378 -4.22631 -12.9547 3.2495 -3.26872 41.8896 -19.7168 11.5066 -29.2081 0.0598081 0.137039 -9.79774 -5.03522 54.9081 -24.234 0.0496218 0.113702 6.00955 4.0467 -8.02266 9.23673 -4.20556 2.0327 1.43212 -6.52802 -42.0338 -0.852353 -38.7721 -0.655187 -2.81204 10.4391 0.0741816 -2.32622 -40.4017 -6.04875 -2.85072 10.4281 14.9574 0.779096 -9.8844 12.4959 -7.18224e-16 -8.29157e-16 4.6442e-17 -9.23673 -4.20556 2.0327 -144.386 -67.118 -137.986 0.852353 -38.7721 -0.655187 123.699 73.4702 -106.457 2.32622 -40.4017 -6.04875 -1.17805 -2.90806 -15.2853 -0.779096 -9.8844 12.4959 -5.44287e-16 -5.62336e-16 -1.27487e-14 
-0.388295 97.0051 25.2732 -8.2339 -7.95118 34.9288 0 5.07867 -1.15138 0.996686 -1.71078 -1.91343 0 5.61661 1.07143 1.41347 -0.390824 -1.75553 -1.02604e-17 5.98978 0.11501 1.29481 1.75638 -1.66311 -1.10457e-17 6.50583 -0.443523 1.18818 5.03832 -1.58137 -1.97295e-17 7.60548 -1.50593 0.493209 6.84685 -1.67162 -2.53307e-17 9.49737 -0.914492 -0.417334 7.76086 -1.41019 -2.90401e-17 10.5513 1.57691 0.0451589 0.424828 0.114528 -1.29193e-17 4.78644 0.715339 0.387773 5.03788 -4.80345 -1.8116e-17 4.82109 0.421791 -2.18452 -10.5855 -2.54264 -2.00958e-17 4.83041 0.765062 -5.33604 -13.3693 -8.76647 1.23299 -7.60731 7.53374 8.60413 -7.2119 1.05189 12.9547 3.2495 -3.26872 -38.3797 -19.5948 -22.8513 29.2081 0.0598081 0.137039 11.9062 -10.2495 -81.9873 24.234 0.0496219 0.113701 2.77381 -13.6557 -5.13763 -1.23299 -7.60729 7.53365 -17.3945 -6.10824 -2.46189 -12.9547 3.2495 -3.26872 33.3516 -17.6575 5.92277 -29.2081 0.0598081 0.137039 -8.87304 -3.89238 47.8968 -24.234 0.0496218 0.113702 2.51701 -0.949012 -2.66824 9.23673 -4.20556 2.0327 3.79248 -5.78773 -39.7594 -0.852353 -38.7721 -0.655187 -2.86336 10.6264 0.0802936 -2.32622 -40.4017 -6.04875 -3.23786 10.9202 15.0512 0.779096 -9.8844 12.4959 -1.8068e-15 -8.75599e-16 9.2884e-17 -9.23673 -4.20556 2.0327 -145.071 -61.021 -141.607 0.852353 -38.7721 -0.655187 113.893 74.8248 -97.0721 2.32622 -40.4017 -6.04875 0.189897 -2.72496 -14.9398 -0.779096 -9.8844 12.4959 -2.50852e-16 -5.80676e-16 -1.27579e-14 
